<svg width="512" height="512" viewBox="0 0 512 512" fill="none" xmlns="http://www.w3.org/2000/svg">
<path d="M476.362 104.516L291.662 8.56689C280.648 2.86991 268.312 0 256.024 0C243.737 0 231.401 2.86991 220.387 8.60972L35.6378 104.559C13.6089 115.996 0 137.156 0 160.072V351.971C0 374.887 13.56 396.047 35.6378 407.484L220.338 503.433C231.352 509.173 243.639 512 255.976 512C268.263 512 280.599 509.13 291.613 503.433L476.362 407.484C498.391 396.047 512 374.844 512 351.971V160.029C512 137.156 498.44 115.953 476.362 104.516V104.516ZM333.321 404.143L333.615 417.936C333.615 419.606 332.391 421.491 330.923 422.176L321.573 426.888C320.104 427.531 318.831 426.759 318.831 425.089L318.684 411.51C310.705 414.423 302.579 415.109 297.439 413.309C296.46 412.967 296.019 411.725 296.411 410.268L299.788 397.803C300.082 396.818 300.67 395.833 301.453 395.233C301.747 394.976 302.04 394.805 302.334 394.676C302.873 394.419 303.411 394.377 303.852 394.548C309.432 396.176 316.53 395.405 323.384 392.406C332.098 388.551 337.923 380.755 337.825 373.045C337.727 366.02 333.419 363.15 322.894 363.065C309.481 363.108 296.949 360.794 296.753 343.489C296.607 329.268 305.026 314.448 318.44 305.11L318.293 291.189C318.293 289.475 319.468 287.59 320.985 286.905L330.042 281.851C331.51 281.208 332.783 282.022 332.783 283.692L332.93 297.614C339.587 295.301 345.364 294.658 350.602 295.729C351.728 295.986 352.266 297.357 351.777 298.942L348.252 311.278C347.958 312.22 347.371 313.163 346.637 313.762C346.364 314.003 346.05 314.205 345.706 314.362C345.217 314.576 344.776 314.619 344.336 314.576C341.937 314.105 336.259 313.034 327.3 316.975C317.901 321.13 314.621 328.283 314.67 333.595C314.768 339.934 318.44 341.862 331.265 342.033C348.35 342.29 355.693 348.801 355.889 363.836C356.133 378.571 347.126 394.462 333.321 404.143V404.143ZM430.15 380.969C430.15 382.255 429.955 383.454 428.731 384.054L382.03 408.898C380.806 409.54 379.827 408.983 379.827 407.698V397.161C379.827 395.876 380.708 395.19 381.932 394.548L427.948 370.475C429.171 369.833 430.15 370.389 430.15 371.674V380.969V380.969ZM462.264 144.995L287.501 239.444C265.717 250.581 249.661 263.089 249.612 286.091V474.52C249.612 488.27 255.976 497.179 265.717 499.792C262.535 500.263 259.255 500.606 256.024 500.606C245.793 500.606 235.709 498.164 226.848 493.581L42.1486 397.632C24.0849 388.251 12.8747 370.732 12.8747 351.928V160.029C12.8747 141.225 24.0849 123.706 42.1486 114.325L226.897 18.376C235.758 13.7927 245.842 11.3511 256.073 11.3511C266.305 11.3511 276.389 13.7927 285.249 18.376L469.998 114.325C485.223 122.249 495.503 135.914 498.391 151.291C492.174 139.854 478.369 136.77 462.264 144.995Z" fill="#293138"/>
</svg>
