<svg width="445" height="500" viewBox="0 0 445 500" fill="none" xmlns="http://www.w3.org/2000/svg">
<path fillRule="evenodd" clipRule="evenodd" d="M444.422 147C444.418 138.592 442.622 131.163 438.99 124.788C435.422 118.517 430.076 113.264 422.91 109.108C363.741 74.9583 304.516 40.9132 245.368 6.72917C229.422 -2.48437 213.96 -2.1493 198.132 7.19792C174.582 21.1007 56.6719 88.7188 21.5365 109.089C7.06771 117.474 0.0260417 130.306 0.0225694 146.984C0 215.661 0.0225694 284.335 0 353.014C0.00347222 361.236 1.72396 368.521 5.19618 374.802C8.76562 381.26 14.184 386.66 21.5174 390.91C56.6545 411.28 174.58 478.892 198.125 492.799C213.96 502.151 229.422 502.484 245.373 493.267C304.523 459.082 363.752 425.038 422.929 390.889C430.262 386.641 435.681 381.238 439.25 374.785C442.717 368.503 444.441 361.219 444.444 352.995C444.444 352.995 444.444 215.679 444.422 147Z" fill="#A9B9CB"/>
<path fillRule="evenodd" clipRule="evenodd" d="M244.967 7.17706C229.047 -2.01391 213.611 -1.67884 197.809 7.64407C174.297 21.5104 56.5799 88.9531 21.5017 109.271C7.05556 117.634 0.0260417 130.432 0.0225694 147.068C0 215.566 0.0225694 284.062 0 352.562C0.00347222 360.764 1.72049 368.029 5.1875 374.293C8.75174 380.736 14.1615 386.121 21.4826 390.359C29.5191 395.014 41.8976 402.144 56.4809 410.533L381.293 85.7205C335.845 59.5503 290.385 33.401 244.967 7.17706Z" fill="#7F8B99"/>
<path fillRule="evenodd" clipRule="evenodd" d="M268.152 218.695L337.317 219.182C337.317 190.365 308.147 119.792 224.516 119.792C171.234 119.792 99.6016 153.667 99.6016 251.059C99.6016 348.45 169.822 380.208 224.516 380.208C313.088 380.208 334.256 318.92 334.256 284.285L268.272 280.512C268.272 280.512 270.037 320.573 224.164 320.573C181.82 320.573 174.754 268.701 174.754 251.059C174.754 224.241 184.291 181.191 224.164 181.191C264.039 181.191 268.152 218.695 268.152 218.695Z" fill="white"/>
</svg>
