<svg width="512" height="512" viewBox="0 0 512 512" fill="none" xmlns="http://www.w3.org/2000/svg">
<g clip-path="url(#clip0_191_62)">
<path d="M0 185.295C0 120.436 0 88.0061 12.6225 63.2331C23.7255 41.4421 41.4421 23.7255 63.2331 12.6225C88.0061 0 120.436 0 185.295 0H326.705C391.564 0 423.994 0 448.767 12.6225C470.558 23.7255 488.275 41.4421 499.378 63.2331C512 88.0061 512 120.436 512 185.295V326.705C512 391.564 512 423.994 499.378 448.767C488.275 470.558 470.558 488.275 448.767 499.378C423.994 512 391.564 512 326.705 512H185.295C120.436 512 88.0061 512 63.2331 499.378C41.4421 488.275 23.7255 470.558 12.6225 448.767C0 423.994 0 391.564 0 326.705V185.295Z" fill="#F7DF1E"/>
<path fillRule="evenodd" clipRule="evenodd" d="M126.001 402.975L164.264 379.818C171.646 392.906 178.361 403.98 194.468 403.98C209.908 403.98 219.642 397.94 219.642 374.448V214.687H266.629V375.113C266.629 423.779 238.102 445.931 196.483 445.931C158.894 445.931 137.075 426.464 126 402.971" fill="black"/>
<path fillRule="evenodd" clipRule="evenodd" d="M292.152 397.94L330.411 375.788C340.483 392.236 353.572 404.317 376.729 404.317C396.198 404.317 408.613 394.583 408.613 381.158C408.613 365.048 395.86 359.341 374.379 349.947L362.636 344.909C328.735 330.479 306.247 312.356 306.247 274.093C306.247 238.852 333.097 212 375.052 212C404.924 212 426.404 222.406 441.841 249.592L405.257 273.085C397.202 258.654 388.478 252.949 375.053 252.949C361.292 252.949 352.565 261.675 352.565 273.085C352.565 287.182 361.292 292.889 381.428 301.616L393.174 306.65C433.114 323.768 455.602 341.219 455.602 380.487C455.602 422.779 422.375 445.935 377.737 445.935C334.106 445.935 305.912 425.127 292.153 397.94" fill="black"/>
</g>
<defs>
<clipPath id="clip0_191_62">
<rect width="512" height="512" fill="white"/>
</clipPath>
</defs>
</svg>
