<svg width="444" height="499" viewBox="0 0 444 499" fill="none" xmlns="http://www.w3.org/2000/svg">
<path fillRule="evenodd" clipRule="evenodd" d="M443.696 146.619C443.693 138.233 441.899 130.824 438.273 124.464C434.71 118.211 429.375 112.969 422.219 108.825C363.148 74.7645 304.019 40.8079 244.967 6.71246C229.047 -2.47851 213.611 -2.14344 197.809 7.17947C174.297 21.0458 56.5799 88.4885 21.5017 108.806C7.05556 117.169 0.0260417 129.968 0.0225694 146.603C0 215.101 0.0225694 283.598 0 352.098C0.00347222 360.299 1.72049 367.565 5.1875 373.829C8.75174 380.271 14.1615 385.657 21.4826 389.895C56.5625 410.212 174.295 477.65 197.802 491.52C213.611 500.848 229.047 501.181 244.972 491.987C304.026 457.89 363.158 423.935 422.238 389.874C429.559 385.638 434.969 380.249 438.533 373.811C441.995 367.548 443.715 360.282 443.719 352.079C443.719 352.079 443.719 215.119 443.696 146.619Z" fill="#5C8DBC"/>
<path fillRule="evenodd" clipRule="evenodd" d="M222.538 248.683L5.1875 373.829C8.75174 380.271 14.1615 385.657 21.4826 389.895C56.5625 410.212 174.295 477.65 197.802 491.52C213.611 500.848 229.047 501.181 244.972 491.987C304.026 457.889 363.158 423.935 422.238 389.874C429.559 385.638 434.969 380.249 438.533 373.811L222.538 248.683Z" fill="#1A4674"/>
<path fillRule="evenodd" clipRule="evenodd" d="M158.162 285.752C170.81 307.832 194.586 322.725 221.86 322.725C249.303 322.725 273.214 307.643 285.798 285.327L222.539 248.683L158.162 285.752Z" fill="#1A4674"/>
<path fillRule="evenodd" clipRule="evenodd" d="M443.697 146.619C443.694 138.233 441.9 130.823 438.273 124.464L222.539 248.683L438.534 373.811C441.996 367.547 443.716 360.282 443.72 352.079C443.72 352.079 443.72 215.119 443.697 146.619Z" fill="#1B598E"/>
<path fillRule="evenodd" clipRule="evenodd" d="M431.819 257.628H414.94V274.509H398.058V257.628H381.182V240.751H398.058V223.872H414.94V240.751H431.819V257.628Z" fill="white"/>
<path fillRule="evenodd" clipRule="evenodd" d="M370.231 257.628H353.355V274.509H336.476V257.628H319.598V240.751H336.476V223.872H353.355V240.751H370.231V257.628Z" fill="white"/>
<path fillRule="evenodd" clipRule="evenodd" d="M285.798 285.327C273.214 307.643 249.303 322.725 221.86 322.725C194.586 322.725 170.81 307.832 158.162 285.753C152.018 275.023 148.485 262.601 148.485 249.35C148.485 208.827 181.338 175.976 221.86 175.976C248.959 175.976 272.61 190.683 285.32 212.537L349.454 175.607C323.963 131.603 276.371 101.999 221.86 101.999C140.478 101.999 74.5078 167.971 74.5078 249.35C74.5078 276.048 81.6102 301.084 94.0234 322.68C119.451 366.916 167.178 396.702 221.86 396.702C276.643 396.702 324.445 366.796 349.836 322.43L285.798 285.327Z" fill="white"/>
</svg>
