<svg width="452" height="512" viewBox="0 0 452 512" fill="none" xmlns="http://www.w3.org/2000/svg">
<path fillRule="evenodd" clipRule="evenodd" d="M41.0864 460.816L0 0H451.474L410.344 460.741L225.464 512L41.0864 460.816Z" fill="#0071BC"/>
<path fillRule="evenodd" clipRule="evenodd" d="M226.117 472.795L375.324 431.748L410.283 38.3765H226.117V472.795Z" fill="#29ABE2"/>
<path fillRule="evenodd" clipRule="evenodd" d="M94.0469 207.678L98.9962 264.112L226.117 207.678V151.152L94.0469 207.678Z" fill="#B3B3B3"/>
<path fillRule="evenodd" clipRule="evenodd" d="M366.907 90.814L226.117 151.152V207.678L362.053 147.248L366.907 90.814Z" fill="#E6E6E6"/>
<path fillRule="evenodd" clipRule="evenodd" d="M226.117 355.337L225.68 355.403L162.638 338.472L158.519 293.458H101.781L109.699 382.139L225.668 414.249L226.117 414.143V355.337Z" fill="#E6E6E6"/>
<path fillRule="evenodd" clipRule="evenodd" d="M226.117 207.678V264.113H295.139L288.865 337.896L226.117 355.386V414.187L341.701 382.077L356.922 207.678H226.117Z" fill="white"/>
<path fillRule="evenodd" clipRule="evenodd" d="M226.117 207.678H94.0469L98.9962 264.113H226.117V207.678Z" fill="#E6E6E6"/>
<path fillRule="evenodd" clipRule="evenodd" d="M226.115 147.248V90.814H225.542H84.0117L89.0197 147.248H226.115Z" fill="#E6E6E6"/>
<path fillRule="evenodd" clipRule="evenodd" d="M226.117 90.814V146.541V147.248H362.053L366.907 90.814H226.117Z" fill="white"/>
</svg>
