<svg width="512" height="369" viewBox="0 0 512 369" fill="none" xmlns="http://www.w3.org/2000/svg">
<path d="M399.109 72.9012L410.158 80.8904C429.373 96.3694 440.422 113.846 442.824 133.819C463.481 129.824 489.902 132.82 501.431 140.809L512 147.3L510.078 151.295C506.716 158.785 505.755 160.782 505.275 161.781C486.539 199.23 449.55 199.729 432.256 199.23C388.541 308.582 295.346 369 169.484 369C111.357 369 67.1618 350.525 37.3778 314.074C-2.01394 266.139 -2.01394 203.724 1.34877 183.751L2.30954 179.756H349.629C367.884 179.756 381.815 174.763 388.541 170.769C381.335 159.783 378.933 147.3 378.452 140.31C377.011 120.337 381.815 99.3654 391.423 84.3857L399.109 72.9012ZM92.6223 119.838V169.77H39.7797V119.838H92.6223ZM155.073 119.838V169.77H102.23V119.838H155.073ZM217.523 119.838V169.77H164.68V119.838H217.523ZM279.973 119.838V169.77H227.131V119.838H279.973ZM342.423 119.838V169.77H289.581V119.838H342.423ZM279.973 59.9188V109.851H227.131V59.9188H279.973ZM217.523 59.9188V109.851H164.68V59.9188H217.523ZM155.073 59.9188V109.851H102.23V59.9188H155.073ZM279.973 0V49.9323H227.131V0H279.973Z" fill="#2396ED"/>
</svg>
