<svg width="499" height="499" viewBox="0 0 499 499" fill="none" xmlns="http://www.w3.org/2000/svg">
<path fillRule="evenodd" clipRule="evenodd" d="M488.661 226.836L271.202 9.39388C258.688 -3.13129 238.376 -3.13129 225.845 9.39388L180.69 54.549L237.971 111.83C251.283 107.333 266.546 110.349 277.159 120.962C287.821 131.64 290.815 147.034 286.209 160.39L341.413 215.595C354.769 210.993 370.18 213.972 380.847 224.655C395.755 239.558 395.755 263.712 380.847 278.625C365.934 293.538 341.779 293.538 326.861 278.625C315.647 267.4 312.876 250.93 318.554 237.115L267.071 185.632L267.066 321.113C270.7 322.917 274.132 325.316 277.159 328.332C292.067 343.234 292.067 367.389 277.159 382.313C262.246 397.221 238.081 397.221 223.189 382.313C208.281 367.389 208.281 343.234 223.189 328.332C226.873 324.654 231.135 321.873 235.682 320.004V183.26C231.135 181.402 226.878 178.637 223.189 174.932C211.894 163.652 209.178 147.078 214.965 133.208L158.503 76.7358L9.39798 225.83C-3.13266 238.366 -3.13266 258.679 9.39798 271.204L226.856 488.651C239.376 501.176 259.683 501.176 272.219 488.651L488.661 272.215C501.186 259.684 501.186 239.361 488.661 226.836Z" fill="#DE4C36"/>
</svg>
