<svg width="512" height="512" viewBox="0 0 512 512" fill="none" xmlns="http://www.w3.org/2000/svg">
<g clip-path="url(#clip0_191_61)">
<path d="M0 185.295C0 120.436 0 88.0061 12.6225 63.2331C23.7255 41.4421 41.4421 23.7255 63.2331 12.6225C88.0061 0 120.436 0 185.295 0H326.705C391.564 0 423.994 0 448.767 12.6225C470.558 23.7255 488.275 41.4421 499.378 63.2331C512 88.0061 512 120.436 512 185.295V326.705C512 391.564 512 423.994 499.378 448.767C488.275 470.558 470.558 488.275 448.767 499.378C423.994 512 391.564 512 326.705 512H185.295C120.436 512 88.0061 512 63.2331 499.378C41.4421 488.275 23.7255 470.558 12.6225 448.767C0 423.994 0 391.564 0 326.705V185.295Z" fill="#3178C6"/>
<path d="M309.681 386.121V434.024C317.461 438.017 326.663 441.01 337.285 443.006C347.907 445.003 359.102 446 370.872 446C382.342 446 393.239 444.902 403.561 442.706C413.884 440.511 422.937 436.893 430.715 431.854C438.495 426.814 444.654 420.227 449.193 412.093C453.731 403.96 456 393.906 456 381.93C456 373.248 454.703 365.638 452.11 359.101C449.517 352.564 445.776 346.75 440.889 341.662C436.003 336.571 430.142 332.006 423.311 327.964C416.478 323.923 408.773 320.105 400.195 316.513C393.911 313.917 388.277 311.399 383.289 308.953C378.303 306.508 374.063 304.014 370.573 301.468C367.081 298.923 364.388 296.228 362.493 293.384C360.599 290.539 359.651 287.322 359.651 283.728C359.651 280.435 360.498 277.467 362.194 274.822C363.889 272.177 366.285 269.907 369.376 268.012C372.468 266.114 376.257 264.643 380.746 263.594C385.234 262.546 390.222 262.023 395.707 262.023C399.697 262.023 403.911 262.323 408.349 262.921C412.788 263.519 417.251 264.442 421.74 265.691C426.228 266.938 430.59 268.509 434.83 270.407C439.068 272.302 442.984 274.498 446.575 276.992V232.233C439.294 229.439 431.339 227.368 422.712 226.021C414.085 224.673 404.185 224 393.014 224C381.644 224 370.872 225.223 360.699 227.668C350.525 230.112 341.573 233.929 333.843 239.119C326.113 244.31 320.005 250.921 315.516 258.955C311.028 266.988 308.784 276.593 308.784 287.771C308.784 302.042 312.897 314.217 321.127 324.297C329.356 334.376 341.847 342.909 358.603 349.895C365.186 352.59 371.321 355.233 377.005 357.83C382.691 360.424 387.603 363.118 391.743 365.912C395.882 368.706 399.148 371.75 401.542 375.043C403.936 378.337 405.132 382.08 405.132 386.272C405.132 389.364 404.384 392.234 402.888 394.879C401.393 397.522 399.122 399.819 396.081 401.765C393.04 403.711 389.249 405.232 384.711 406.33C380.173 407.428 374.861 407.977 368.777 407.977C358.404 407.977 348.132 406.156 337.958 402.512C327.783 398.87 318.358 393.407 309.681 386.121ZM229.948 266.912H291.464V227.469H120V266.912H181.216V442.531H229.948V266.912Z" fill="white"/>
</g>
<defs>
<clipPath id="clip0_191_61">
<rect width="512" height="512" fill="white"/>
</clipPath>
</defs>
</svg>
