<svg width="452" height="512" viewBox="0 0 452 512" fill="none" xmlns="http://www.w3.org/2000/svg">
<path fillRule="evenodd" clipRule="evenodd" d="M41.0852 460.819L0 0H451.456L410.327 460.746L225.451 512L41.0852 460.819Z" fill="#E44D26"/>
<path fillRule="evenodd" clipRule="evenodd" d="M225.729 472.824L375.117 431.408L410.264 37.6787H225.729V472.824Z" fill="#F16529"/>
<path d="M150.939 208.59H225.727V265.107H99.2516L84.0078 94.1968H225.727V150.715H145.774L150.939 208.59Z" fill="#EBEBEB"/>
<path d="M225.479 355.438L225.727 355.372V414.174L225.467 414.246L109.695 382.107L101.777 293.366H158.512L162.535 338.442L225.479 355.438Z" fill="#EBEBEB"/>
<path d="M225.533 94.1968H367.11L362.05 150.715H225.533V94.1968Z" fill="white"/>
<path d="M225.533 265.107V208.59H356.907L355.528 223.766L341.397 382.107L225.533 414.219V355.419L288.568 338.406L295.128 265.107H225.533Z" fill="white"/>
</svg>
