<svg width="451" height="512" viewBox="0 0 451 512" fill="none" xmlns="http://www.w3.org/2000/svg">
<path d="M3.61564 384.097C5.93997 388.229 9.29735 391.328 13.4295 393.652L212.29 508.32C220.554 513.227 230.626 513.227 238.632 508.32L437.492 393.652C445.756 389.004 450.663 380.223 450.663 370.667V141.333C450.663 131.777 445.756 122.996 437.492 118.348L238.632 3.6802C230.368 -1.22673 220.296 -1.22673 212.29 3.6802L13.4295 118.348C4.90694 122.996 0 131.777 0 141.333V370.926C0 375.574 1.03304 379.965 3.61564 384.097Z" fill="#009639"/>
<path d="M161.669 343.55C161.669 357.754 150.305 369.118 136.101 369.118C121.897 369.118 110.533 357.754 110.533 343.55V168.192C110.533 154.504 122.671 143.399 139.458 143.399C151.597 143.399 165.801 148.306 174.323 158.894L182.071 168.192L288.991 296.03V168.708C288.991 154.504 300.354 143.14 314.558 143.14C328.763 143.14 340.126 154.504 340.126 168.708V344.066C340.126 357.754 327.988 368.859 311.201 368.859C299.063 368.859 284.859 363.952 276.336 353.364L161.669 216.486V343.55Z" fill="white"/>
</svg>
