<svg width="443" height="500" viewBox="0 0 443 500" fill="none" xmlns="http://www.w3.org/2000/svg">
<path fillRule="evenodd" clipRule="evenodd" d="M221.453 499.072C214.576 499.072 208.157 497.238 202.196 494.029L141.217 457.808C132.047 452.764 136.632 450.93 139.383 450.013C151.762 445.887 154.054 444.97 166.892 437.634C168.268 436.717 170.102 437.175 171.477 438.092L218.244 466.061C220.078 466.978 222.37 466.978 223.746 466.061L406.685 360.148C408.519 359.231 409.436 357.397 409.436 355.105V143.738C409.436 141.446 408.519 139.612 406.685 138.695L223.746 33.2409C221.912 32.3239 219.619 32.3239 218.244 33.2409L35.3041 138.695C33.4702 139.612 32.5532 141.904 32.5532 143.738V355.105C32.5532 356.939 33.4702 359.231 35.3041 360.148L85.2801 389.033C112.331 402.788 129.296 386.741 129.296 370.694V162.078C129.296 159.327 131.588 156.576 134.798 156.576H158.181C160.932 156.576 163.683 158.869 163.683 162.078V370.694C163.683 406.915 143.968 428.005 109.58 428.005C99.035 428.005 90.7821 428.005 67.3988 416.543L19.2568 389.033C7.33593 382.156 0 369.318 0 355.563V144.197C0 130.442 7.33593 117.604 19.2568 110.727L202.196 4.8142C213.659 -1.60473 229.248 -1.60473 240.71 4.8142L423.65 110.727C435.571 117.604 442.907 130.442 442.907 144.197V355.563C442.907 369.318 435.571 382.156 423.65 389.033L240.71 494.946C234.75 497.697 227.872 499.072 221.453 499.072ZM277.848 353.729C197.612 353.729 181.106 317.05 181.106 285.872C181.106 283.121 183.398 280.37 186.608 280.37H210.449C213.2 280.37 215.493 282.204 215.493 284.955C219.161 309.255 229.706 321.176 278.307 321.176C316.82 321.176 333.326 312.465 333.326 291.832C333.326 279.911 328.741 271.2 268.678 265.24C218.702 260.196 187.525 249.192 187.525 209.303C187.525 172.165 218.702 150.157 270.971 150.157C329.658 150.157 358.543 170.331 362.211 214.347C362.211 215.722 361.753 217.098 360.836 218.473C359.919 219.39 358.543 220.307 357.168 220.307H333.326C331.034 220.307 328.741 218.473 328.283 216.181C322.781 190.963 308.567 182.71 270.971 182.71C228.789 182.71 223.746 197.382 223.746 208.386C223.746 221.683 229.706 225.809 286.56 233.145C342.955 240.481 369.547 251.026 369.547 290.457C369.089 330.804 336.077 353.729 277.848 353.729Z" fill="#539E43"/>
</svg>
