<svg width="512" height="416" viewBox="0 0 512 416" fill="none" xmlns="http://www.w3.org/2000/svg">
<path d="M410.56 62.72C438.752 92.48 450.592 133.12 455.584 190.08C468.836 190.08 481.194 193.019 489.536 204.384L505.12 225.504C509.6 231.584 512 238.848 512 246.4V303.776C511.984 311.185 508.314 318.407 502.336 322.784C431.771 374.444 344.699 416 256 416C157.869 416 59.6197 359.453 9.664 322.784C3.68661 318.407 0.0144533 311.185 0 303.776V246.4C0 238.848 2.4 231.552 6.848 225.472L22.432 204.384C30.7783 193.07 43.1906 190.08 56.416 190.08C61.408 133.12 73.216 92.48 101.44 62.72C154.662 6.3296 225.135 0.12032 255.104 0.00177344L256 0C285.44 0 356.8 5.76 410.56 62.72ZM256.032 157.472C249.952 157.472 242.944 157.824 235.488 158.56C232.864 168.352 228.992 177.184 223.328 182.816C200.928 205.216 173.92 208.672 159.456 208.672C145.852 208.672 131.601 205.831 119.968 198.496C108.963 202.112 98.3957 207.326 97.696 220.32C96.5243 244.881 96.4224 269.419 96.3205 293.968C96.2672 306.289 96.2187 318.613 96.032 330.944C96.08 338.101 100.396 344.75 106.912 347.712C159.872 371.84 209.952 384 256.032 384C302.048 384 352.128 371.84 405.056 347.712C411.572 344.75 415.886 338.101 415.936 330.944C416.571 294.107 416.06 257.121 414.304 220.32H414.336C413.652 207.252 403.041 202.124 392 198.496C380.359 205.799 366.145 208.672 352.544 208.672C338.08 208.672 311.104 205.216 288.672 182.816C283.008 177.184 279.136 168.352 276.512 158.56C269.707 157.868 262.872 157.505 256.032 157.472ZM202.15 245.333C213.646 245.333 222.966 254.653 222.966 266.15V304.517C222.966 316.013 213.646 325.333 202.15 325.333C190.653 325.333 181.333 316.013 181.333 304.517V266.15C181.333 254.653 190.653 245.333 202.15 245.333ZM308.817 245.333C320.313 245.333 329.633 254.653 329.633 266.15V304.517C329.633 316.013 320.313 325.333 308.817 325.333C297.32 325.333 288 316.013 288 304.517V266.15C288 254.653 297.32 245.333 308.817 245.333ZM162.88 56.64C140.48 58.88 121.6 66.24 112 76.48C91.2 99.2 95.68 156.8 107.52 168.96C116.16 177.6 132.48 183.36 150.08 183.36C163.52 183.36 189.12 180.48 210.24 159.04C219.52 150.08 225.28 127.68 224.64 104.96C224 86.72 218.88 71.68 211.2 65.28C202.88 57.92 184 54.72 162.88 56.64ZM300.8 65.28C293.12 71.68 288 86.72 287.36 104.96C286.72 127.68 292.48 150.08 301.76 159.04C322.88 180.48 348.48 183.36 361.92 183.36C379.52 183.36 395.84 177.6 404.48 168.96C416.32 156.8 420.8 99.2 400 76.48C390.4 66.24 371.52 58.88 349.12 56.64C328 54.72 309.12 57.92 300.8 65.28ZM256 112C250.88 112 244.8 112.32 238.08 112.96C238.72 116.48 239.04 120.32 239.36 124.48C239.36 127.36 239.36 130.24 239.04 133.44C245.44 132.8 250.88 132.8 256 132.8C261.119 132.8 266.56 132.8 272.96 133.44C272.64 130.24 272.64 127.361 272.64 124.481C272.96 120.321 273.28 116.48 273.92 112.96C267.2 112.32 261.12 112 256 112Z" fill="black"/>
</svg>
