<svg width="284" height="156" viewBox="0 0 284 156" fill="none" xmlns="http://www.w3.org/2000/svg">
<g filter="url(#filter0_b_249_365)">
<rect width="283.98" height="155.46" rx="15" fill="url(#paint0_linear_249_365)" fill-opacity="0.2"/>
<circle cx="11.0039" cy="9.50488" r="3" fill="#ED6B5D"/>
<circle cx="19.002" cy="9.50586" r="3" fill="#F4BE50"/>
<circle cx="27.002" cy="9.50586" r="3" fill="#61C554"/>
<path fillRule="evenodd" clipRule="evenodd" d="M135.698 67H147.802C148.701 67 149.45 67 150.044 67.08C150.672 67.164 151.239 67.35 151.694 67.805C152.15 68.261 152.336 68.828 152.42 69.455C152.5 70.05 152.5 70.8 152.5 71.698V71.802C152.5 72.7 152.5 73.45 152.42 74.044C152.336 74.672 152.15 75.239 151.694 75.694C151.239 76.15 150.672 76.336 150.044 76.42C149.45 76.5 148.701 76.5 147.802 76.5H135.698C134.8 76.5 134.05 76.5 133.456 76.42C132.828 76.336 132.261 76.15 131.806 75.694C131.35 75.239 131.164 74.672 131.08 74.044C131 73.45 131 72.7 131 71.802V71.698C131 70.8 131 70.05 131.08 69.456C131.164 68.828 131.35 68.261 131.805 67.806C132.261 67.35 132.828 67.164 133.455 67.08C134.05 67 134.799 67 135.698 67ZM133.655 68.567C133.194 68.629 132.996 68.736 132.866 68.867C132.736 68.997 132.629 69.194 132.566 69.655C132.502 70.138 132.5 70.786 132.5 71.75C132.5 72.714 132.502 73.362 132.567 73.845C132.629 74.306 132.736 74.504 132.867 74.634C132.997 74.764 133.194 74.871 133.655 74.934C134.138 74.998 134.786 75 135.75 75H147.75C148.714 75 149.362 74.998 149.845 74.933C150.306 74.871 150.504 74.764 150.634 74.633C150.764 74.503 150.871 74.306 150.934 73.845C150.998 73.362 151 72.714 151 71.75C151 70.786 150.998 70.138 150.933 69.655C150.871 69.194 150.764 68.996 150.633 68.866C150.503 68.736 150.306 68.629 149.845 68.566C149.362 68.503 148.714 68.5 147.75 68.5H135.75C134.786 68.5 134.138 68.502 133.655 68.567ZM135 71.75C135 71.5511 135.079 71.3603 135.22 71.2197C135.36 71.079 135.551 71 135.75 71H137.75C137.848 71 137.946 71.0194 138.037 71.0571C138.128 71.0948 138.211 71.15 138.28 71.2197C138.35 71.2893 138.405 71.372 138.443 71.463C138.481 71.554 138.5 71.6515 138.5 71.75C138.5 71.8485 138.481 71.946 138.443 72.037C138.405 72.128 138.35 72.2107 138.28 72.2803C138.211 72.35 138.128 72.4052 138.037 72.4429C137.946 72.4806 137.848 72.5 137.75 72.5H135.75C135.551 72.5 135.36 72.421 135.22 72.2803C135.079 72.1397 135 71.9489 135 71.75ZM140 71.75C140 71.5511 140.079 71.3603 140.22 71.2197C140.36 71.079 140.551 71 140.75 71H147.75C147.949 71 148.14 71.079 148.28 71.2197C148.421 71.3603 148.5 71.5511 148.5 71.75C148.5 71.9489 148.421 72.1397 148.28 72.2803C148.14 72.421 147.949 72.5 147.75 72.5H140.75C140.551 72.5 140.36 72.421 140.22 72.2803C140.079 72.1397 140 71.9489 140 71.75ZM135.698 78H147.802C148.701 78 149.45 78 150.044 78.08C150.672 78.164 151.239 78.35 151.694 78.806C152.15 79.261 152.336 79.828 152.42 80.456C152.5 81.05 152.5 81.799 152.5 82.698V82.802C152.5 83.701 152.5 84.45 152.42 85.044C152.336 85.672 152.15 86.239 151.694 86.694C151.239 87.15 150.672 87.336 150.044 87.42C149.45 87.5 148.701 87.5 147.802 87.5H135.698C134.8 87.5 134.05 87.5 133.456 87.42C132.828 87.336 132.261 87.15 131.806 86.694C131.35 86.239 131.164 85.672 131.08 85.044C131 84.45 131 83.701 131 82.802V82.698C131 81.799 131 81.05 131.08 80.456C131.164 79.828 131.35 79.261 131.805 78.806C132.261 78.35 132.828 78.164 133.455 78.08C134.05 78 134.8 78 135.698 78ZM133.655 79.566C133.194 79.629 132.996 79.736 132.866 79.866C132.736 79.996 132.629 80.194 132.566 80.656C132.502 81.138 132.5 81.786 132.5 82.75C132.5 83.714 132.502 84.362 132.567 84.845C132.629 85.306 132.736 85.504 132.867 85.634C132.997 85.764 133.194 85.871 133.655 85.934C134.138 85.998 134.786 86 135.75 86H147.75C148.714 86 149.362 85.998 149.845 85.933C150.306 85.871 150.504 85.764 150.634 85.633C150.764 85.503 150.871 85.306 150.934 84.845C150.998 84.362 151 83.714 151 82.75C151 81.786 150.998 81.138 150.933 80.655C150.871 80.194 150.764 79.996 150.633 79.866C150.503 79.736 150.306 79.629 149.845 79.566C149.362 79.503 148.714 79.5 147.75 79.5H135.75C134.786 79.5 134.138 79.502 133.655 79.566ZM135 82.75C135 82.5511 135.079 82.3603 135.22 82.2197C135.36 82.079 135.551 82 135.75 82H137.75C137.949 82 138.14 82.079 138.28 82.2197C138.421 82.3603 138.5 82.5511 138.5 82.75C138.5 82.9489 138.421 83.1397 138.28 83.2803C138.14 83.421 137.949 83.5 137.75 83.5H135.75C135.551 83.5 135.36 83.421 135.22 83.2803C135.079 83.1397 135 82.9489 135 82.75ZM140 82.75C140 82.5511 140.079 82.3603 140.22 82.2197C140.36 82.079 140.551 82 140.75 82H147.75C147.949 82 148.14 82.079 148.28 82.2197C148.421 82.3603 148.5 82.5511 148.5 82.75C148.5 82.9489 148.421 83.1397 148.28 83.2803C148.14 83.421 147.949 83.5 147.75 83.5H140.75C140.551 83.5 140.36 83.421 140.22 83.2803C140.079 83.1397 140 82.9489 140 82.75Z" fill="url(#paint1_linear_249_365)"/>
</g>
<defs>
<filter id="filter0_b_249_365" x="-5" y="-5" width="293.98" height="165.46" filterUnits="userSpaceOnUse" color-interpolation-filters="sRGB">
<feFlood flood-opacity="0" result="BackgroundImageFix"/>
<feGaussianBlur in="BackgroundImageFix" stdDeviation="2.5"/>
<feComposite in2="SourceAlpha" operator="in" result="effect1_backgroundBlur_249_365"/>
<feBlend mode="normal" in="SourceGraphic" in2="effect1_backgroundBlur_249_365" result="shape"/>
</filter>
<linearGradient id="paint0_linear_249_365" x1="413.886" y1="-53.0839" x2="79.556" y2="214.957" gradientUnits="userSpaceOnUse">
<stop stop-color="#F3AC3C"/>
<stop offset="1" stop-color="#FFE8C6"/>
</linearGradient>
<linearGradient id="paint1_linear_249_365" x1="157.5" y1="64.5" x2="125.5" y2="95.5" gradientUnits="userSpaceOnUse">
<stop stop-color="#E48C0A"/>
<stop offset="1" stop-color="#E48C0A" stop-opacity="0"/>
</linearGradient>
</defs>
</svg>
